inDegrees=no
num_controls=7
num_derivatives=13
num_iterations=32
num_multipliers=7
num_parameters=0
num_slacks=7
num_states=26
objective=0.472802
objective_accelerations=0.051686
objective_balance=0.001000
objective_effort=0.014821
objective_height=0.396034
objective_ligament=0.009260
solver_duration=526.210747
status=Solve_Succeeded
success=true
DataType=double
version=3
OpenSimVersion=4.5
endheader
time	/jointset/ground_pelvis/pelvis_tilt/value	/jointset/ground_pelvis/pelvis_tx/value	/jointset/ground_pelvis/pelvis_ty/value	/jointset/hip_l/hip_flexion_l/value	/jointset/hip_l/hip_adduction_l/value	/jointset/hip_l/hip_rotation_l/value	/jointset/back/lumbar_extension/value	/jointset/patellofemoral_l/patellar_flexion_l/value	/jointset/knee_l/knee_flexion_l/value	/jointset/knee_l/knee_adduction_l/value	/jointset/knee_l/knee_rotation_l/value	/jointset/ankle_l/ankle_angle_l/value	/jointset/subtalar_l/subtalar_angle_l/value	/jointset/ground_pelvis/pelvis_tilt/speed	/jointset/ground_pelvis/pelvis_tx/speed	/jointset/ground_pelvis/pelvis_ty/speed	/jointset/hip_l/hip_flexion_l/speed	/jointset/hip_l/hip_adduction_l/speed	/jointset/hip_l/hip_rotation_l/speed	/jointset/back/lumbar_extension/speed	/jointset/patellofemoral_l/patellar_flexion_l/speed	/jointset/knee_l/knee_flexion_l/speed	/jointset/knee_l/knee_adduction_l/speed	/jointset/knee_l/knee_rotation_l/speed	/jointset/ankle_l/ankle_angle_l/speed	/jointset/subtalar_l/subtalar_angle_l/speed	/forceset/tau_hip_flexion_l	/forceset/tau_hip_adduction_l	/forceset/tau_hip_rotation_l	/forceset/tau_knee_flexion_l	/forceset/tau_ankle_angle_l	/forceset/tau_subtalar_angle_l	/forceset/tau_lumbar_extension	lambda_cid13_p0	lambda_cid13_p1	lambda_cid13_p2	lambda_cid13_p3	lambda_cid13_p4	lambda_cid13_p5	lambda_cid14_p0	/jointset/ground_pelvis/pelvis_tilt/accel	/jointset/ground_pelvis/pelvis_tx/accel	/jointset/ground_pelvis/pelvis_ty/accel	/jointset/hip_l/hip_flexion_l/accel	/jointset/hip_l/hip_adduction_l/accel	/jointset/hip_l/hip_rotation_l/accel	/jointset/back/lumbar_extension/accel	/jointset/patellofemoral_l/patellar_flexion_l/accel	/jointset/knee_l/knee_flexion_l/accel	/jointset/knee_l/knee_adduction_l/accel	/jointset/knee_l/knee_rotation_l/accel	/jointset/ankle_l/ankle_angle_l/accel	/jointset/subtalar_l/subtalar_angle_l/accel	gamma_cid13_p0	gamma_cid13_p1	gamma_cid13_p2	gamma_cid13_p3	gamma_cid13_p4	gamma_cid13_p5	gamma_cid14_p0
1.5	-0.2934657693132702	0.07980808163763328	0.8165023550023832	0.8505552471494742	-0.3622473145419497	-0.07699263693875701	-0.3079841354213744	0.7187968385615664	0.7187968385614534	-0.0569950211298783	-0.1700446306155103	0.2720107113629764	0.1488525930657882	0.3687130090915985	0.2220622022811755	0.3779458788754569	-1.906699389779286	0.03855943515308544	-0.5756778669538142	0.5990370239034472	-1.938131252204017	-1.938131252204072	-0.2002396915145044	0.0414022099064356	-0.5470468492302659	-0.1607958761669651	-0.1124547770424412	0.08088561735284443	0.005937490162244034	-0.1179228936193875	-0.04817519548016766	-0.0233896714302278	0.1125558092609075	-41.97615299468517	17.56697896609	-3.1492014615702	2.306492500043698	-434.4494642605576	-22.08324644581906	-14.30598782977793	0.3602712509855479	0.3170374279259421	-0.6217246192453223	-0.8327026277472953	0.314936811135804	-0.1707122597735099	1.221472680858125	-0.8934778569856601	-0.8934778569856759	-0.2395225092204629	0.355600676401616	-0.4429452141837727	0.3866110670151017	8.273375762554066e-09	3.012373285786479e-06	-7.946672135706041e-07	3.79359474446226e-07	2.522506601685244e-07	1.856459262915808e-06	3.099571556474323e-07
1.51	-0.2897607958796039	0.08204433244656725	0.8202500613675205	0.8314480913068082	-0.3618469523487273	-0.08275992224282892	-0.3019338127742937	0.6993728060892995	0.6993728060892448	-0.0590098710622317	-0.1696160797829899	0.266518535898012	0.1472627877744051	0.3722218678824789	0.2251600542229329	0.3715244408377988	-1.914494381155551	0.04150826161108924	-0.5776847298987539	0.6109609021661981	-1.946432048816913	-1.94643204881689	-0.2027495533641926	0.04433735119043041	-0.5513049691144938	-0.1571499895575905	-0.1089690643170683	0.07936555728984399	0.006517929351919172	-0.1154648321921228	-0.04762436691801864	-0.02437393548319625	0.1096200757549441	-41.72696940225814	17.76071020879782	-2.962942988632408	2.342003274818435	-432.3197201342307	-22.11693991329223	-15.07961657202872	0.3372240648800325	0.3020604716369497	-0.6629564453950336	-0.717286692312639	0.2838814755396929	-0.2012102526657767	1.167854897299381	-0.7619621977612292	-0.7619621977495969	-0.2591222098986414	0.2668390941450461	-0.4046412831247921	0.3553897073698873	-2.12197555916913e-08	3.251205085850265e-06	-6.178552987791414e-07	4.166997706773378e-07	2.175925989771418e-07	1.877839447051677e-06	3.055268684237354e-07
1.52	-0.2860225276836796	0.08431074205378589	0.8239314327424063	0.8122701076904347	-0.3614172967084352	-0.08854438356452453	-0.2957662494449206	0.6798730493240505	0.6798730493240321	-0.06105030045056142	-0.1691573038896355	0.2609863000526902	0.1457098037990108	0.3753719615429991	0.2280939619381086	0.3646788808253453	-1.920864944521673	0.04441812456538384	-0.5791130704761519	0.622485160361587	-1.953276110802602	-1.953276110802502	-0.2053555826961004	0.0474472220642938	-0.5550589253020283	-0.1534316129693648	-0.1054833515916737	0.07784549722680083	0.007098368541254555	-0.1130067707648675	-0.04707353835589013	-0.02535819953622458	0.1066843422490225	-41.47812871231071	17.95245527006642	-2.774029769322558	2.366950037675649	-430.191785785997	-22.18362749026361	-15.85039945046105	0.2885182249136249	0.2842485826094411	-0.7065490142043703	-0.5478170257185292	0.3071441103940612	-0.05500778626513593	1.141548667385743	-0.6021309315443811	-0.6021309315443957	-0.2587560056642717	0.3905465943754264	-0.3421124748453063	0.4011090627853363	-5.344837788719789e-08	3.384773828818058e-06	-4.074884961036629e-07	4.432736614616571e-07	1.676605145729539e-07	1.825212161184791e-06	2.899016303925546e-07
1.53	-0.2822547244043048	0.08660556613742082	0.8275422654398663	0.7930359867586184	-0.3609583447081167	-0.09434128667994986	-0.2894854496970306	0.6603124094794804	0.6603124094794715	-0.06311588587390286	-0.1686669678860593	0.2554191583601901	0.1441949335512048	0.378122754990276	0.2308327506888229	0.3574235254546035	-1.925698998385641	0.04738219630441617	-0.580218356918495	0.6335925379347918	-1.958598198600431	-1.958598198600341	-0.2077188533994181	0.05062522284475374	-0.5582868909444695	-0.1495102057413046	-0.1020176429294283	0.07633142134583185	0.007612566423597946	-0.1104725579707731	-0.04676953931626545	-0.02638939014519801	0.1037340508083989	-41.32396192380733	18.17726440121136	-2.585941859210723	2.517127117253009	-428.2018876843191	-22.20713742277838	-16.61082432915737	0.2584641099415101	0.2630717080084743	-0.744635564160925	-0.4121720298279629	0.2921674952541551	-0.1306823444086659	1.082994610333223	-0.4592483070193608	-0.4592483070206191	-0.2181948812377117	0.2822530376164554	-0.300652434800173	0.3919592409828041	-8.858345930779448e-08	3.406500573621357e-06	-1.614696250514178e-07	4.584082464587594e-07	1.014997805051604e-07	1.69395193843998e-06	2.623817571284223e-07
1.54	-0.2784613923493954	0.08892665364590398	0.8310786232304874	0.7737613307955483	-0.360469526232481	-0.1001477213140488	-0.2830960437117978	0.640706148636299	0.6407061486363189	-0.06520372045999291	-0.1681446866311256	0.2498222342460969	0.1427201379133132	0.3804777166498358	0.2333466469077549	0.3497838994577552	-1.928971950773284	0.05039141962731549	-0.5810193742084278	0.6442064078298166	-1.96240031052295	-1.962400310522867	-0.2098054152456216	0.05383627233462462	-0.561015409621183	-0.145416690986586	-0.09855193426715522	0.07481734546480467	0.008126764305868618	-0.107938345176689	-0.04646554027666389	-0.02742058075425664	0.1007837593678214	-41.17313378552177	18.40227662400758	-2.397450281940944	2.665594711930206	-426.2602284275914	-22.259058363873	-17.35687364222296	0.2093518673702905	0.2392700762528646	-0.7834031394256781	-0.2355967304535332	0.3161744271675435	0.005846044216930206	1.042847131749832	-0.2981357564820409	-0.2981357564820384	-0.2034142342413314	0.3971563362577025	-0.242223081699959	0.435530568117077	-7.9161855696385e-08	3.399142101266339e-06	-3.306795367526395e-07	4.543646723489586e-07	1.249105505904421e-07	1.763720021756655e-06	2.824353734499377e-07
1.55	-0.2746464144609121	0.09127174187519624	0.8345367290219701	0.7544615375838069	-0.359951005348473	-0.1059590606205993	-0.2766032680490099	0.6210693702832928	0.621069370283269	-0.06731311652595146	-0.1675895235395165	0.2442003687549381	0.1412862670343896	0.3824467638207805	0.2356296032048714	0.3417790516856851	-1.930713748433325	0.05331289820296557	-0.5811841031353349	0.6542463431545222	-1.964688686500047	-1.964688686499965	-0.2120427166754184	0.05720416828995605	-0.5632705508412134	-0.1413368207429278	-0.09492707816430612	0.07313762037469139	0.008574682728996967	-0.1056789798021432	-0.04581536118760482	-0.02851925148995468	0.09771335343766099	-40.92347562954755	18.65606158383448	-2.232702564684929	2.75736924009802	-424.4201131911085	-22.29975331862312	-18.08432139451324	0.1800250647674921	0.2166817846292345	-0.8176922962434251	-0.1025203038528763	0.2800035652358355	-0.01759682241340656	0.9692094971108813	-0.1542672608752654	-0.1542672608753155	-0.2287905972129052	0.307577986158395	-0.2039830276619417	0.3969511932601428	-1.840320193940616e-08	3.358272400446306e-06	-9.783052198871772e-07	4.28224523615988e-07	2.515232711129567e-07	2.065107675100682e-06	3.573019234244789e-07
1.56	-0.2708138773161613	0.09363843434309713	0.8379130529957018	0.7351525165914585	-0.35940329588022	-0.111770040108662	-0.2700131644801158	0.60141769242202	0.6014176924219217	-0.0694438661063686	-0.1670004871360504	0.2385585871744714	0.1398937420460568	0.3839895679041627	0.2376674946294808	0.3334275359077783	-1.930817506896307	0.05622913647749207	-0.5809474105129878	0.6636719890504303	-1.965380212179214	-1.965380212179132	-0.2140761180997676	0.06061093468478834	-0.5649986274815437	-0.1371475128684681	-0.09130222206130484	0.07145789528464325	0.009022601151397407	-0.1034196144275288	-0.04516518209851593	-0.02961792222553303	0.09464294750762206	-40.67785567265729	18.90811596019858	-2.064893451482383	2.841141452966715	-422.6462024374354	-22.39986782847703	-18.78879204710643	0.1241032498578907	0.1902571017513147	-0.8527367405929802	0.09201110895833901	0.3151263669429388	0.08613035406777425	0.9199892459903982	0.0212343031041744	0.02123430310417489	-0.1626342331517095	0.4049304241579379	-0.1368101657601506	0.4574180942773867	9.157493283589366e-09	3.373526601578321e-06	-1.326909052975491e-06	4.198046176411606e-07	3.144393524519994e-07	2.241063048864307e-06	4.002254047299608e-07
1.57	-0.2669680504958257	0.09602424748183205	0.8412041935490884	0.7158507202556814	-0.3588265349918642	-0.1175767394496871	-0.2633319728525321	0.5817672352841576	0.5817672352840324	-0.07159402321899869	-0.1663773789132351	0.2329022098883889	0.1385435789612633	0.3851068724937617	0.2394501762119912	0.3247502259910535	-1.929264746959121	0.05911146568138892	-0.5803104759895371	0.6724491251342759	-1.96443361509943	-1.964433615099389	-0.2159437835429477	0.06401738553693169	-0.5661869414522942	-0.1328793183211945	-0.08765965611141088	0.06960107010225912	0.009429545116247521	-0.1012420343479538	-0.04444181402429847	-0.03077471086084717	0.09155907473123079	-40.42229896196574	19.18846623829682	-1.907073887761731	2.933090105895832	-421.007903207905	-22.49219043726577	-19.46576302064706	0.09521094820598366	0.165618438345921	-0.8827228105463955	0.2284658644470515	0.2728585129183604	0.06514773023280809	0.8389940900612286	0.1729314658995189	0.1729314658934249	-0.1966410659901811	0.3093049382853832	-0.0962522673978902	0.4119916983611087	-4.77925966089383e-09	3.458935680150394e-06	-1.301735573506029e-06	4.33535015114012e-07	2.977346348117031e-07	2.260228073152431e-06	4.03220050199119e-07
